<svg width="42" height="42" viewBox="0 0 42 42" fill="none" xmlns="http://www.w3.org/2000/svg">
<path d="M0.00303657 20.4809C0.063768 18.9702 0.162457 17.6812 0.406901 16.3982C0.640717 15.1745 0.989922 13.9872 1.4363 12.8318C1.88419 11.6718 2.44899 10.5635 3.1216 9.51129C3.70614 8.5988 4.35141 7.7349 5.06196 6.91502C5.82718 6.03138 6.6759 5.24491 7.57625 4.50398C8.8349 3.46548 10.2074 2.61068 11.6802 1.91986C13.0345 1.28522 14.4359 0.769 15.9116 0.497226C16.7877 0.336288 17.6698 0.195088 18.555 0.10399C19.3354 0.0250395 20.1264 -0.0174725 20.9098 0.00682011C21.7206 0.032631 22.5283 0.149539 23.336 0.243673C24.6554 0.39702 25.9308 0.749262 27.1773 1.19716C28.3418 1.61468 29.4714 2.11572 30.5191 2.77769C31.3465 3.3015 32.1892 3.8162 32.9498 4.42959C33.7788 5.09763 34.5592 5.84007 35.2925 6.61288C36.2749 7.64835 37.1039 8.81288 37.8342 10.0412C38.4157 11.0189 39.0184 11.9876 39.5513 12.9927C40.0099 13.8551 40.4304 14.7448 40.7796 15.6558C41.1 16.4939 41.346 17.3654 41.5448 18.2414C41.7103 18.9717 41.7847 19.7278 41.8561 20.4748C41.935 21.3038 42.0201 22.1404 41.9958 22.9694C41.9715 23.8181 41.8333 24.6668 41.7195 25.511C41.639 26.1092 41.5236 26.7028 41.4067 27.2965C41.3581 27.544 41.2716 27.7823 41.1926 28.0237C41.0165 28.5627 40.8555 29.1078 40.6521 29.6362C40.4623 30.1296 40.2573 30.6231 40.0038 31.0846C39.5544 31.8984 39.0837 32.7001 38.5827 33.482C38.027 34.3489 37.3847 35.1536 36.6484 35.8763C36.0866 36.4275 35.5522 37.0135 34.9418 37.5054C34.2358 38.0763 33.4828 38.5941 32.7115 39.0738C32.0434 39.4898 31.3313 39.836 30.6223 40.1807C30.0605 40.4524 29.4897 40.7181 28.8975 40.9064C28.1171 41.1554 27.3155 41.3406 26.5169 41.5304C26.0173 41.6488 25.5087 41.7323 25.0016 41.8128C24.6372 41.8705 24.2683 41.913 23.8993 41.9297C23.2116 41.9601 22.5207 42.0132 21.8345 41.9722C21.01 41.9237 20.1871 41.8098 19.3688 41.6807C18.5975 41.5593 17.8201 41.4332 17.0731 41.2161C16.2897 40.9899 15.5336 40.6635 14.7744 40.3598C14.3402 40.1867 13.9105 39.9985 13.5021 39.7738C12.8599 39.4185 12.2404 39.0207 11.6043 38.6517C11.0455 38.3284 10.4564 38.052 9.91896 37.6967C9.1006 37.1578 8.28528 36.6051 7.52159 35.9917C6.82014 35.4284 6.15209 34.812 5.53719 34.1561C4.90558 33.4805 4.33622 32.7426 3.77446 32.0047C2.97736 30.9586 2.36701 29.7986 1.81587 28.6083C1.24196 27.3678 0.812283 26.0758 0.526845 24.7397C0.375017 24.0291 0.262663 23.3079 0.176121 22.5868C0.085024 21.817 0.0455486 21.0427 0 20.4763L0.00303657 20.4809ZM20.2949 39.8983C31.134 39.9059 39.9066 31.1469 39.9264 20.2972C39.9461 9.4627 31.1689 0.65361 20.3435 0.6445C9.49232 0.63539 0.684747 9.3959 0.672601 20.2106C0.660454 31.1059 9.41641 39.8922 20.2949 39.8998V39.8983Z" fill="#1D1D1D"/>
<path d="M20.2995 39.8983C31.1391 39.8983 39.9264 31.111 39.9264 20.2714C39.9264 9.43178 31.1391 0.644531 20.2995 0.644531C9.45986 0.644531 0.672607 9.43178 0.672607 20.2714C0.672607 31.111 9.45986 39.8983 20.2995 39.8983Z" fill="#FFFB1F"/>
<path d="M24.525 24.5406V23.1135H23.0978V21.6863H21.6706V18.8759H18.8162V21.6863H17.389V23.1135H15.9618V24.5406H5.97151V23.1135H4.54432V21.6863H3.11713V20.2591H1.68994V17.4487H38.7984V20.2591H37.3712V21.6863H35.944V23.1135H34.5168V24.5406H24.5265H24.525ZM30.4129 21.6817V23.1119H31.8401V21.6847H30.4129V20.2576H28.9857V18.8304H27.5585V20.2606C27.0833 20.2606 26.605 20.2606 26.1313 20.2606V18.8759H24.7041V20.2591C25.19 20.2591 25.6606 20.2591 26.1313 20.2591V21.6863C26.6247 21.6863 27.0924 21.6863 27.5585 21.6863V23.0694H28.9857V21.6832C29.4609 21.6832 29.9376 21.6832 30.4129 21.6832V21.6817ZM8.82588 21.6832C9.30111 21.6832 9.77785 21.6832 10.2531 21.6832V23.1135H11.6803V21.6863H10.2531V20.2591H8.82588V18.8319H7.3987V20.2621C6.92651 20.2591 6.45129 20.256 5.97151 20.253V18.8759H4.54432V20.2727C5.02713 20.2727 5.49932 20.2727 5.97151 20.2727V21.6847C6.46343 21.6847 6.93106 21.6847 7.3987 21.6847V23.0679H8.82588V21.6817V21.6832Z" fill="#1D1D1D"/>
<path d="M8.82563 21.6865H7.39844V20.2593H8.82563V21.6865Z" fill="#1D1D1D"/>
<path d="M28.9853 21.6865H27.5581V20.2593H28.9853V21.6865Z" fill="#1D1D1D"/>
</svg>
