<svg width="19" height="19" viewBox="0 0 19 19" fill="none" xmlns="http://www.w3.org/2000/svg">
<path d="M0.00137411 9.268C0.0288562 8.58438 0.0735147 8.00107 0.18413 7.42051C0.289936 6.86675 0.447959 6.32947 0.649952 5.80663C0.852633 5.28172 1.10822 4.78017 1.41258 4.30404C1.6771 3.89112 1.96909 3.50019 2.29064 3.12918C2.63691 2.72931 3.02097 2.37342 3.4284 2.03814C3.99796 1.56819 4.61906 1.18138 5.2855 0.868773C5.89835 0.581585 6.5325 0.347987 7.20032 0.225004C7.59675 0.152177 7.99593 0.0882808 8.39648 0.0470576C8.74962 0.0113309 9.10758 -0.00790662 9.4621 0.00308623C9.82898 0.0147661 10.1945 0.0676692 10.56 0.110267C11.1571 0.179659 11.7342 0.339055 12.2983 0.541736C12.8252 0.730676 13.3364 0.957403 13.8105 1.25696C14.1849 1.49399 14.5662 1.7269 14.9104 2.00447C15.2856 2.30678 15.6387 2.64275 15.9706 2.99246C16.4151 3.46103 16.7902 3.988 17.1207 4.54382C17.3838 4.98628 17.6566 5.42462 17.8977 5.87945C18.1052 6.2697 18.2955 6.67231 18.4536 7.08454C18.5985 7.4638 18.7098 7.85817 18.7998 8.2546C18.8747 8.58507 18.9084 8.92722 18.9407 9.26525C18.9764 9.64038 19.0149 10.0189 19.0039 10.3941C18.9929 10.7781 18.9304 11.1622 18.8788 11.5442C18.8424 11.8149 18.7902 12.0835 18.7373 12.3522C18.7153 12.4642 18.6762 12.572 18.6404 12.6813C18.5607 12.9252 18.4879 13.1718 18.3959 13.4109C18.31 13.6342 18.2172 13.8575 18.1025 14.0664C17.8991 14.4346 17.6861 14.7974 17.4594 15.1512C17.2079 15.5435 16.9173 15.9077 16.5841 16.2347C16.3299 16.4841 16.088 16.7493 15.8118 16.9719C15.4924 17.2303 15.1516 17.4645 14.8026 17.6817C14.5003 17.8699 14.178 18.0266 13.8572 18.1825C13.603 18.3055 13.3446 18.4257 13.0767 18.5109C12.7235 18.6236 12.3608 18.7074 11.9994 18.7933C11.7733 18.8469 11.5432 18.8847 11.3137 18.9211C11.1488 18.9472 10.9819 18.9664 10.8149 18.974C10.5037 18.9877 10.1911 19.0118 9.88051 18.9932C9.50744 18.9713 9.13506 18.9197 8.76474 18.8613C8.41572 18.8064 8.06394 18.7493 7.72591 18.6511C7.37139 18.5487 7.02924 18.401 6.68572 18.2636C6.48922 18.1853 6.29478 18.1001 6.10996 17.9984C5.81934 17.8376 5.53902 17.6576 5.25115 17.4907C4.99831 17.3443 4.73174 17.2193 4.48852 17.0585C4.1182 16.8146 3.74925 16.5645 3.40366 16.2869C3.08624 16.032 2.78394 15.7531 2.50568 15.4563C2.21987 15.1505 1.96222 14.8166 1.70801 14.4827C1.34731 14.0094 1.07112 13.4844 0.821716 12.9458C0.56201 12.3845 0.367573 11.7998 0.238407 11.1952C0.169702 10.8736 0.11886 10.5473 0.0796982 10.2209C0.038475 9.87261 0.0206116 9.52221 0 9.26594L0.00137411 9.268ZM9.18384 18.0547C14.0887 18.0582 18.0585 14.0945 18.0674 9.18486C18.0764 4.28205 14.1045 0.295771 9.20583 0.291649C4.29546 0.287526 0.309861 4.25182 0.304365 9.1457C0.298868 14.076 4.2611 18.052 9.18384 18.0554V18.0547Z" fill="#1D1D1D"/>
<path d="M9.18598 18.0546C14.0911 18.0546 18.0675 14.0782 18.0675 9.17304C18.0675 4.2679 14.0911 0.291504 9.18598 0.291504C4.28084 0.291504 0.304443 4.2679 0.304443 9.17304C0.304443 14.0782 4.28084 18.0546 9.18598 18.0546Z" fill="#FFFB1F"/>
<path d="M2.69462 9.16741H2.05566V8.5415H2.69188C2.69188 8.74899 2.69188 8.95923 2.69188 9.17016L2.69462 9.16672V9.16741Z" fill="white"/>
<path d="M3.34816 9.17055V8.52197H3.99399C3.99399 8.73771 3.99399 8.95413 3.99399 9.17055L3.99674 9.1678H3.34473L3.34747 9.17055H3.34816Z" fill="white"/>
<path d="M11.8278 9.1678H11.1792V8.52197H11.825V9.17055L11.8278 9.1678Z" fill="white"/>
<path d="M12.4707 9.17055V8.52197H13.1166V9.17055L13.1193 9.1678H12.4673L12.47 9.17055H12.4707Z" fill="white"/>
<path d="M3.35071 9.81353H2.70831C2.70831 9.59504 2.70831 9.37931 2.70831 9.16357C2.70831 9.16357 2.70557 9.16701 2.70557 9.16632C2.92061 9.1677 3.13566 9.16907 3.3514 9.16976L3.34865 9.16701V9.81559L3.3514 9.81284L3.35071 9.81353Z" fill="white"/>
<path d="M4.64254 9.81038C4.42543 9.81038 4.20832 9.81038 3.99121 9.81038L3.99396 9.81313V9.16455L3.99121 9.1673C4.20351 9.1673 4.41581 9.1673 4.63979 9.1673V9.81313L4.64254 9.81038Z" fill="white"/>
<path d="M11.8215 9.17023C12.0386 9.17023 12.2558 9.17023 12.4735 9.17023L12.4708 9.16748V9.81606L12.4735 9.81331H11.825C11.825 9.59483 11.825 9.38115 11.825 9.16748L11.8222 9.17023H11.8215Z" fill="white"/>
<path d="M13.113 9.16779H13.7616V9.81362L13.7644 9.81087C13.5473 9.81087 13.3301 9.81087 13.113 9.81087L13.1158 9.81362V9.16504L13.113 9.16779Z" fill="white"/>
<path d="M3.99379 9.81006V10.4586H3.34796C3.34796 10.2422 3.34796 10.0265 3.34796 9.81006L3.34521 9.81281H3.99654L3.99379 9.81006Z" fill="white"/>
<path d="M4.63623 9.81378H5.28481V10.4596H4.63898C4.63898 10.2432 4.63898 10.0268 4.63898 9.81104L4.63623 9.81378Z" fill="white"/>
<path d="M13.1166 9.81006V10.4586H12.4708V9.81006L12.468 9.81281H13.1193L13.1166 9.81006Z" fill="white"/>
<path d="M13.759 9.81378H14.4076V10.4596H13.7618C13.7618 10.2432 13.7618 10.0268 13.7618 9.81104L13.759 9.81378Z" fill="white"/>
<path d="M11.0979 11.1052V10.4594H10.4521V9.81356H9.80627V8.54183H8.51461V9.81356H7.86878V10.4594H7.22295V11.1052H2.70214V10.4594H2.05631V9.81356H1.41048V9.16773H0.764648V7.896H17.5569V9.16773H16.9111V9.81356H16.2653V10.4594H15.6194V11.1052H11.0986H11.0979ZM13.7623 9.8115V10.4587H14.4082V9.81288H13.7623V9.16704H13.1165V8.52121H12.4707V9.16842C12.2556 9.16842 12.0392 9.16842 11.8248 9.16842V8.54183H11.179V9.16773C11.3989 9.16773 11.6118 9.16773 11.8248 9.16773V9.81356C12.0481 9.81356 12.2597 9.81356 12.4707 9.81356V10.4395H13.1165V9.81219C13.3315 9.81219 13.5473 9.81219 13.7623 9.81219V9.8115ZM3.9938 9.81219C4.20885 9.81219 4.42458 9.81219 4.63963 9.81219V10.4594H5.28546V9.81356H4.63963V9.16773H3.9938V8.5219H3.34797V9.16911C3.1343 9.16773 2.91925 9.16636 2.70214 9.16498V8.54183H2.05631V9.17392C2.27479 9.17392 2.48847 9.17392 2.70214 9.17392V9.81288C2.92474 9.81288 3.13636 9.81288 3.34797 9.81288V10.4388H3.9938V9.8115V9.81219Z" fill="#1D1D1D"/>
<path d="M3.99397 9.81331H3.34814V9.16748H3.99397V9.81331Z" fill="#1D1D1D"/>
<path d="M13.1165 9.81331H12.4707V9.16748H13.1165V9.81331Z" fill="#1D1D1D"/>
</svg>
