<svg width="104" height="103" viewBox="0 0 104 103" fill="none" xmlns="http://www.w3.org/2000/svg">
<path d="M0.0074491 50.2423C0.156431 46.5364 0.398527 43.3742 0.99818 40.227C1.57176 37.225 2.42841 34.3124 3.52343 31.478C4.62217 28.6325 6.0077 25.9135 7.65768 23.3324C9.09163 21.094 10.6746 18.9747 12.4177 16.9634C14.2948 14.7958 16.3769 12.8664 18.5855 11.0489C21.6732 8.50126 25.0402 6.40434 28.653 4.70967C31.9753 3.1528 35.413 1.88646 39.0333 1.21976C41.1824 0.824958 43.3463 0.478575 45.5177 0.255102C47.4322 0.0614253 49.3727 -0.0428622 51.2945 0.0167306C53.2834 0.080048 55.2649 0.366838 57.2464 0.597761C60.483 0.97394 63.6116 1.83804 66.6695 2.93678C69.5262 3.96103 72.2973 5.19013 74.8672 6.81404C76.8971 8.09901 78.9642 9.36163 80.8302 10.8663C82.8638 12.5052 84.7782 14.3265 86.5772 16.2223C88.987 18.7624 91.0206 21.6191 92.8121 24.6323C94.2386 27.0309 95.7173 29.4072 97.0246 31.8728C98.1494 33.9884 99.1811 36.171 100.038 38.4057C100.824 40.4616 101.427 42.5995 101.915 44.7486C102.321 46.5401 102.503 48.3949 102.678 50.2274C102.872 52.261 103.081 54.3132 103.021 56.3468C102.962 58.4289 102.623 60.5109 102.343 62.5818C102.146 64.0492 101.863 65.5055 101.576 66.9618C101.457 67.5689 101.244 68.1537 101.051 68.7459C100.619 70.0681 100.224 71.4052 99.7249 72.7014C99.2593 73.9118 98.7565 75.1223 98.1345 76.2546C97.032 78.2509 95.8774 80.2175 94.6483 82.1356C93.2851 84.2624 91.7096 86.2364 89.9032 88.0093C88.5251 89.3613 87.2141 90.799 85.7168 92.0057C83.9849 93.4061 82.1375 94.6762 80.2455 95.8532C78.6067 96.8737 76.8599 97.7229 75.1205 98.5684C73.7424 99.2351 72.342 99.8869 70.8894 100.349C68.975 100.96 67.0084 101.414 65.0493 101.879C63.8239 102.17 62.5762 102.375 61.3322 102.572C60.4383 102.714 59.5332 102.818 58.6282 102.859C56.9409 102.934 55.2463 103.064 53.5628 102.963C51.5403 102.844 49.5216 102.565 47.5141 102.248C45.622 101.95 43.7151 101.641 41.8826 101.109C39.9607 100.554 38.1059 99.7528 36.2436 99.0079C35.1784 98.5833 34.1243 98.1214 33.1224 97.5702C31.547 96.6986 30.0273 95.7228 28.4667 94.8177C27.0961 94.0244 25.651 93.3465 24.3325 92.475C22.325 91.1528 20.3249 89.7971 18.4514 88.2923C16.7307 86.9105 15.0919 85.3984 13.5834 83.7893C12.034 82.1319 10.6373 80.3218 9.25924 78.5117C7.30385 75.9454 5.80658 73.0999 4.45456 70.1798C3.04668 67.1369 1.99264 63.9673 1.29242 60.6897C0.919964 58.9466 0.644347 57.1774 0.432048 55.4083C0.208575 53.5199 0.111737 51.6204 0 50.2311L0.0074491 50.2423ZM49.7861 97.8756C76.3757 97.8942 97.8961 76.4073 97.9445 49.7916C97.993 23.2132 76.4613 1.60339 49.9053 1.58104C23.2859 1.5587 1.67977 23.0494 1.64998 49.5793C1.62018 76.3067 23.0997 97.8607 49.7861 97.8793V97.8756Z" fill="#1D1D1D"/>
<path d="M49.7972 97.8756C76.3882 97.8756 97.9445 76.3194 97.9445 49.7283C97.9445 23.1373 76.3882 1.58105 49.7972 1.58105C23.2062 1.58105 1.6499 23.1373 1.6499 49.7283C1.6499 76.3194 23.2062 97.8756 49.7972 97.8756Z" fill="#FFFB1F"/>
<path d="M14.6076 49.6987H11.1438V46.3057H14.5927C14.5927 47.4305 14.5927 48.5702 14.5927 49.7136L14.6076 49.695V49.6987Z" fill="white"/>
<path d="M18.1497 49.7137V46.1978H21.6508C21.6508 47.3673 21.6508 48.5405 21.6508 49.7137L21.6657 49.6988H18.1311L18.146 49.7137H18.1497Z" fill="white"/>
<path d="M64.118 49.6988H60.6021V46.1978H64.1031V49.7137L64.118 49.6988Z" fill="white"/>
<path d="M67.6043 49.7137V46.1978H71.1054V49.7137L71.1203 49.6988H67.5857L67.6006 49.7137H67.6043Z" fill="white"/>
<path d="M18.1646 53.1997H14.6821C14.6821 52.0153 14.6821 50.8458 14.6821 49.6763C14.6821 49.6763 14.6672 49.6949 14.6672 49.6912C15.833 49.6986 16.9988 49.7061 18.1683 49.7098L18.1534 49.6949V53.2109L18.1683 53.196L18.1646 53.1997Z" fill="white"/>
<path d="M25.1666 53.1813C23.9897 53.1813 22.8127 53.1813 21.6357 53.1813L21.6506 53.1962V49.6802L21.6357 49.6951C22.7866 49.6951 23.9375 49.6951 25.1517 49.6951V53.1962L25.1666 53.1813Z" fill="white"/>
<path d="M64.0845 49.7136C65.2614 49.7136 66.4384 49.7136 67.6191 49.7136L67.6042 49.6987V53.2147L67.6191 53.1998H64.1031C64.1031 52.0154 64.1031 50.8571 64.1031 49.6987L64.0882 49.7136H64.0845Z" fill="white"/>
<path d="M71.0869 49.6985H74.6029V53.1996L74.6178 53.1847C73.4408 53.1847 72.2639 53.1847 71.0869 53.1847L71.1018 53.1996V49.6836L71.0869 49.6985Z" fill="white"/>
<path d="M21.6507 53.1807V56.6966H18.1497C18.1497 55.5234 18.1497 54.3539 18.1497 53.1807L18.1348 53.1956H21.6656L21.6507 53.1807Z" fill="white"/>
<path d="M25.1331 53.1995H28.649V56.7005H25.148C25.148 55.5273 25.148 54.3541 25.148 53.1846L25.1331 53.1995Z" fill="white"/>
<path d="M71.1053 53.1807V56.6966H67.6043V53.1807L67.5894 53.1956H71.1202L71.1053 53.1807Z" fill="white"/>
<path d="M74.5879 53.1995H78.1039V56.7005H74.6028C74.6028 55.5273 74.6028 54.3541 74.6028 53.1846L74.5879 53.1995Z" fill="white"/>
<path d="M60.1628 60.2016V56.7005H56.6617V53.1994H53.1606V46.3053H46.1585V53.1994H42.6574V56.7005H39.1563V60.2016H14.6487V56.7005H11.1477V53.1994H7.64659V49.6983H4.14551V42.8042H95.1773V49.6983H91.6762V53.1994H88.1751V56.7005H84.6741V60.2016H60.1665H60.1628ZM74.6066 53.1883V56.6968H78.1077V53.1957H74.6066V49.6946H71.1055V46.1935H67.6044V49.7021C66.4386 49.7021 65.2654 49.7021 64.1033 49.7021V46.3053H60.6023V49.6983C61.7941 49.6983 62.9487 49.6983 64.1033 49.6983V53.1994C65.3138 53.1994 66.461 53.1994 67.6044 53.1994V56.5925H71.1055V53.192C72.2713 53.192 73.4408 53.192 74.6066 53.192V53.1883ZM21.6509 53.192C22.8167 53.192 23.9862 53.192 25.152 53.192V56.7005H28.6531V53.1994H25.152V49.6983H21.6509V46.1973H18.1498V49.7058C16.9915 49.6983 15.8257 49.6909 14.6487 49.6834V46.3053H11.1477V49.7319C12.3321 49.7319 13.4904 49.7319 14.6487 49.7319V53.1957C15.8555 53.1957 17.0027 53.1957 18.1498 53.1957V56.5888H21.6509V53.1883V53.192Z" fill="#1D1D1D"/>
<path d="M21.6507 53.1993H18.1497V49.6982H21.6507V53.1993Z" fill="#1D1D1D"/>
<path d="M71.1051 53.1993H67.604V49.6982H71.1051V53.1993Z" fill="#1D1D1D"/>
</svg>
