<svg width="18" height="18" viewBox="0 0 18 18" fill="none" xmlns="http://www.w3.org/2000/svg">
<path fill-rule="evenodd" clip-rule="evenodd" d="M11.2096 0.732858C11.812 0.556495 12.4524 0.556495 13.0548 0.732858C13.51 0.866111 13.8883 1.11566 14.2542 1.41963C14.6046 1.71063 15.0002 2.10108 15.4736 2.56829L15.5286 2.62252C16.0137 3.10121 16.4186 3.50077 16.7202 3.85494C17.035 4.2245 17.2939 4.60771 17.432 5.0709C17.6143 5.68285 17.6143 6.33471 17.432 6.94666C17.2939 7.40985 17.035 7.79306 16.7202 8.16262C16.4186 8.51681 16.0136 8.91639 15.5285 9.39512L14.4457 10.4636C14.1588 10.7468 14.084 10.824 14.0256 10.9026C13.9097 11.0588 13.8255 11.2362 13.778 11.4248C13.7541 11.5198 13.7416 11.6265 13.7039 12.028L13.7008 12.062C13.616 12.965 13.5481 13.6886 13.4578 14.247C13.3686 14.7982 13.2403 15.3199 12.9598 15.7402C12.1637 16.9331 10.6856 17.4714 9.30883 17.0698C8.82377 16.9283 8.39004 16.6113 7.96731 16.2465C7.53902 15.8769 7.02175 15.3664 6.37615 14.7293L5.47638 13.8414L1.67132 17.5964C1.31753 17.9455 0.747696 17.9417 0.398561 17.5879C0.0494258 17.2341 0.0532022 16.6643 0.406996 16.3152L4.19506 12.577L3.40823 11.8005C2.75506 11.1559 2.23237 10.6401 1.8536 10.2133C1.48047 9.79276 1.15483 9.36076 1.00666 8.87635C0.581797 7.48731 1.11999 5.98417 2.32996 5.18047C2.75192 4.90019 3.27776 4.77306 3.83299 4.68495C4.39661 4.59552 5.1279 4.5287 6.04173 4.44521L6.0756 4.44211C6.46797 4.40626 6.57229 4.39438 6.66532 4.37152C6.8522 4.32559 7.02836 4.24374 7.18398 4.13054C7.26145 4.07419 7.33781 4.00212 7.61825 3.72537L8.79083 2.56823C9.26422 2.10105 9.65985 1.71061 10.0102 1.41963C10.3761 1.11566 10.7544 0.866111 11.2096 0.732858ZM12.5491 2.46035C12.2769 2.38066 11.9875 2.38066 11.7153 2.46035C11.5936 2.49597 11.4352 2.57591 11.1603 2.80425C10.8765 3.04 10.5356 3.37529 10.0279 3.87636L8.88258 5.00656C8.86951 5.01946 8.8566 5.03221 8.84385 5.0448C8.61997 5.2659 8.44342 5.44025 8.24281 5.58618C7.8984 5.8367 7.50854 6.01784 7.09496 6.11949C6.85405 6.17871 6.60694 6.20119 6.29358 6.22971C6.27574 6.23133 6.25768 6.23297 6.23939 6.23464C5.28396 6.32195 4.61254 6.38377 4.11508 6.46271C3.60229 6.54408 3.40588 6.62671 3.32589 6.67985C2.77915 7.043 2.53596 7.72221 2.72794 8.34986C2.75603 8.44169 2.85536 8.63021 3.19997 9.01857C3.53427 9.39532 4.01386 9.86926 4.69675 10.5432L7.61615 13.4241C8.29166 14.0907 8.76613 14.5583 9.14326 14.8837C9.53131 15.2186 9.71978 15.3146 9.81289 15.3418C10.435 15.5232 11.1029 15.28 11.4626 14.741C11.5165 14.6603 11.599 14.4656 11.6809 13.9596C11.7604 13.4679 11.8232 12.8047 11.9118 11.8598C11.9136 11.8411 11.9153 11.8226 11.917 11.8043C11.947 11.4838 11.9706 11.2311 12.0325 10.9851C12.1377 10.5677 12.3239 10.175 12.5806 9.82944C12.7318 9.62582 12.9125 9.44759 13.1417 9.22155C13.1548 9.20867 13.168 9.19564 13.1814 9.18243L14.2365 8.1412C14.7565 7.62809 15.1049 7.28315 15.3499 6.99551C15.5875 6.71652 15.6703 6.55562 15.7069 6.43257C15.7893 6.15605 15.7893 5.86151 15.7069 5.58499C15.6703 5.46194 15.5875 5.30104 15.3499 5.02205C15.1049 4.73441 14.7565 4.38947 14.2365 3.87636C13.7288 3.37529 13.3879 3.04 13.1041 2.80425C12.8292 2.57591 12.6708 2.49597 12.5491 2.46035Z" fill="#A2ACB0"/>
</svg>
